<?xml version="1.0" encoding="utf-8"?>
<!-- Generator: Adobe Illustrator 24.0.1, SVG Export Plug-In . SVG Version: 6.00 Build 0)  -->
<svg version="1.1" id="Layer_1" xmlns="http://www.w3.org/2000/svg" xmlns:xlink="http://www.w3.org/1999/xlink" x="0px" y="0px"
	 viewBox="0 0 512 189" style="enable-background:new 0 0 512 189;" xml:space="preserve">
<style type="text/css">
	.st0{fill:#4720CC;}
	.st1{fill:#C5EB1C;}
	.st2{fill:#22BBFF;}
	.st3{fill:#5427F5;}
	.st4{fill:#CCFF00;}
	.st5{fill:#00E1FF;}
	.st6{fill:#B8F402;}
	.st7{fill:#21CFFF;}
	.st8{fill:#B8E81C;}
	.st9{fill:#22C4FF;}
	.st10{fill:#99E014;}
	.st11{fill:#C7F75E;}
	.st12{fill:#00EEFF;}
	.st13{fill:#216FFF;}
	.st14{fill:#5C82FF;}
	.st15{fill:#533AEB;}
	.st16{fill:#5E36FF;}
</style>
<g>
	<polygon class="st0" points="39.9,186.8 15.9,186.8 33.2,151.6 0,93 25.3,93 45.3,129.8 62.4,93 86.4,93 	"/>
	<path class="st0" d="M165.9,147.5c-2.1-3.2-4.8-6-8.1-8.2c-3.3-2.3-7.1-4.2-11.2-5.7c-4.2-1.6-8.4-3-12.4-4.4
		c-4.3-1.4-7.8-3.1-10.4-4.9c-2.7-1.9-4.1-4.5-4.1-7.7c0-3.3,1.2-5.8,3.7-7.5c2.4-1.6,5.4-2.5,8.8-2.5c4.1,0,7.3,1.3,9.5,3.7
		c2.1,2.4,3.2,5.7,3.3,9.8h22.5c0-3.8-0.8-7.5-2.2-11c-1.5-3.5-3.7-6.7-6.6-9.4c-2.9-2.7-6.6-4.9-11-6.5c-4.4-1.6-9.6-2.4-15.5-2.4
		c-4.5,0-8.9,0.6-13.1,1.7c-4.2,1.1-7.9,2.8-11.1,5c-3.2,2.2-5.8,5-7.7,8.2c-1.9,3.2-2.9,7-2.9,11.2c0,4.7,0.9,8.6,2.7,11.8
		c1.8,3.2,4.2,5.9,7.2,8.1c3,2.3,6.6,4.2,10.7,5.8c4.1,1.6,8.5,3.2,13.1,4.8c2.1,0.8,4.2,1.6,6.2,2.3c1.9,0.8,3.6,1.7,5,2.6
		c1.4,1,2.5,2.2,3.4,3.5c0.8,1.3,1.3,3,1.3,4.9c0,3.4-1.3,6.2-3.9,8.2c-2.6,2-5.8,3.1-9.6,3.1c-4.8,0-8.8-1.5-11.8-4.4
		c-2.9-2.8-4.5-6.8-4.5-11.8H94.4c0,5.2,1,9.8,2.8,13.8c1.9,4.1,4.5,7.6,7.9,10.4c3.3,2.8,7.3,5,11.9,6.4c4.6,1.5,9.6,2.2,14.8,2.2
		c5.5,0,10.5-0.6,15.1-1.9c4.5-1.3,8.5-3.2,11.8-5.7c3.3-2.5,5.9-5.6,7.7-9.3c1.8-3.7,2.8-8,2.8-12.7
		C169.1,154.6,168,150.7,165.9,147.5"/>
	<polygon class="st0" points="308,186.8 284.1,186.8 301.3,151.6 268.1,93 293.4,93 313.4,129.8 330.6,93 354.5,93 	"/>
	<path class="st0" d="M256.2,147.5c-2.1-3.2-4.8-6-8.1-8.2c-3.3-2.3-7.1-4.2-11.2-5.7c-4.2-1.6-8.4-3-12.4-4.4
		c-4.3-1.4-7.8-3.1-10.4-4.9c-2.7-1.9-4.1-4.5-4.1-7.7c0-3.3,1.2-5.8,3.7-7.5c2.4-1.6,5.4-2.5,8.8-2.5c4.1,0,7.3,1.3,9.5,3.7
		c2.1,2.4,3.2,5.7,3.3,9.8h22.5c0-3.8-0.8-7.5-2.2-11c-1.5-3.5-3.7-6.7-6.6-9.4c-2.9-2.7-6.6-4.9-11-6.5c-4.4-1.6-9.6-2.4-15.5-2.4
		c-4.5,0-8.9,0.6-13.1,1.7c-4.2,1.1-7.9,2.8-11.1,5c-3.2,2.2-5.8,5-7.7,8.2c-1.9,3.2-2.9,7-2.9,11.2c0,4.7,0.9,8.6,2.7,11.8
		c1.8,3.2,4.2,5.9,7.2,8.1c3,2.3,6.6,4.2,10.7,5.8c4.1,1.6,8.5,3.2,13.1,4.8c2.1,0.8,4.2,1.6,6.2,2.3c1.9,0.8,3.6,1.7,5,2.6
		c1.4,1,2.5,2.2,3.4,3.5c0.8,1.3,1.3,3,1.3,4.9c0,3.4-1.3,6.2-3.9,8.2c-2.6,2-5.8,3.1-9.6,3.1c-4.8,0-8.8-1.5-11.8-4.4
		c-2.9-2.8-4.5-6.8-4.5-11.8h-22.5c0,5.2,1,9.8,2.8,13.8c1.9,4.1,4.5,7.6,7.9,10.4c3.3,2.8,7.3,5,11.9,6.4c4.6,1.5,9.6,2.2,14.8,2.2
		c5.5,0,10.5-0.6,15.1-1.9c4.5-1.3,8.5-3.2,11.8-5.7c3.3-2.5,5.9-5.6,7.7-9.3c1.8-3.7,2.8-8,2.8-12.7
		C259.4,154.6,258.3,150.7,256.2,147.5"/>
	<g>
		<polygon class="st1" points="485.2,0.1 485.2,0.1 458.4,0.1 444.9,23.3 431.5,46.6 458.4,46.6 485.2,46.6 498.6,23.3 512,0.1 		
			"/>
		<polyline class="st2" points="458.4,93 444.9,69.8 431.5,46.6 418.1,23.3 404.7,0.1 391.3,23.3 404.7,0.1 377.9,0.1 351.1,0.1 
			364.5,23.3 377.9,46.6 391.3,69.8 404.7,93 		"/>
		<polyline class="st3" points="404.7,93 391.3,116.2 377.9,139.5 404.7,139.5 431.5,139.5 444.9,116.2 458.4,93 		"/>
		<polygon class="st4" points="485.2,0.1 498.6,23.3 512,0.1 		"/>
		<polygon class="st5" points="391.3,23.3 391.3,23.3 404.7,46.6 418.1,23.3 		"/>
		<polygon class="st6" points="485.2,0.1 485.2,0.1 471.8,23.3 498.6,23.3 		"/>
		<polygon class="st7" points="377.9,0.1 364.5,23.3 391.3,23.3 404.7,0.1 		"/>
		<polygon class="st8" points="471.8,23.3 444.9,23.3 458.4,46.6 485.2,46.6 498.6,23.3 		"/>
		<polygon class="st9" points="391.3,23.3 364.5,23.3 377.9,46.6 		"/>
		<polygon class="st10" points="444.9,23.3 431.5,46.6 458.4,46.6 		"/>
		<polygon class="st9" points="377.9,0.1 351.1,0.1 364.5,23.3 		"/>
		<polygon class="st11" points="458.4,0.1 444.9,23.3 471.8,23.3 485.2,0.1 		"/>
		<polygon class="st12" points="391.3,23.3 418.1,23.3 404.7,0.1 		"/>
		<polygon class="st9" points="418.1,23.3 404.7,46.6 418.1,69.8 431.5,46.6 		"/>
		<polygon class="st3" points="418.1,69.8 404.7,93 418.1,116.2 431.5,93 		"/>
		<polygon class="st13" points="404.7,46.6 391.3,23.3 377.9,46.6 391.3,69.8 404.7,93 418.1,69.8 		"/>
		<polygon class="st14" points="444.9,69.8 431.5,46.6 418.1,69.8 431.5,93 458.4,93 		"/>
		<polygon class="st15" points="418.1,116.2 404.7,139.5 431.5,139.5 444.9,116.2 		"/>
		<polygon class="st0" points="404.7,93 391.3,116.2 377.9,139.5 404.7,139.5 418.1,116.2 		"/>
		<polygon class="st16" points="431.5,93 418.1,116.2 444.9,116.2 458.4,93 		"/>
	</g>
</g>
</svg>
