<?xml version="1.0" encoding="utf-8"?>
<!-- Generator: Adobe Illustrator 24.0.1, SVG Export Plug-In . SVG Version: 6.00 Build 0)  -->
<svg version="1.1" id="Layer_1" xmlns="http://www.w3.org/2000/svg" xmlns:xlink="http://www.w3.org/1999/xlink" x="0px" y="0px"
	 viewBox="0 0 512 189" style="enable-background:new 0 0 512 189;" xml:space="preserve">
<style type="text/css">
	.st0{fill:#FFFFFF;}
	.st1{fill:#C5EB1C;}
	.st2{fill:#22BBFF;}
	.st3{fill:#21CFFF;}
	.st4{fill:#4720CC;}
	.st5{fill:#CCFF00;}
	.st6{fill:#00E1FF;}
	.st7{fill:#B8F402;}
	.st8{fill:#B8E81C;}
	.st9{fill:#22C4FF;}
	.st10{fill:#99E014;}
	.st11{fill:#C7F75E;}
	.st12{fill:#00EEFF;}
	.st13{fill:#5427F5;}
	.st14{fill:#5E36FF;}
	.st15{fill:#216FFF;}
	.st16{fill:#5C82FF;}
	.st17{fill:#533AEB;}
</style>
<g>
	<polygon class="st0" points="39.93,186.8 15.95,186.8 33.23,151.56 0,93 25.33,93 45.29,129.85 62.44,93 86.43,93 	"/>
	<g>
		<path class="st0" d="M165.92,147.51c-2.11-3.21-4.85-5.98-8.14-8.22c-3.3-2.25-7.08-4.18-11.23-5.73
			c-4.2-1.57-8.38-3.03-12.43-4.35c-4.3-1.43-7.81-3.09-10.45-4.93c-2.7-1.88-4.07-4.47-4.07-7.69c0-3.31,1.25-5.83,3.71-7.5
			c2.42-1.64,5.37-2.47,8.75-2.47c4.08,0,7.26,1.25,9.46,3.72c2.13,2.4,3.24,5.7,3.29,9.81h22.53c-0.04-3.84-0.77-7.53-2.19-10.96
			c-1.46-3.51-3.67-6.68-6.57-9.4c-2.91-2.73-6.63-4.91-11.04-6.5c-4.43-1.59-9.63-2.39-15.48-2.39c-4.53,0-8.95,0.56-13.14,1.67
			c-4.19,1.1-7.93,2.78-11.12,4.98c-3.19,2.2-5.78,4.96-7.7,8.21c-1.92,3.24-2.89,7.02-2.89,11.23c0,4.66,0.9,8.62,2.68,11.77
			c1.78,3.16,4.2,5.9,7.21,8.14c3.01,2.25,6.62,4.2,10.72,5.79c4.13,1.6,8.52,3.22,13.07,4.82c2.13,0.78,4.2,1.57,6.16,2.35
			c1.92,0.77,3.6,1.66,5,2.65c1.41,1.01,2.54,2.18,3.37,3.51c0.84,1.34,1.26,3,1.26,4.92c0,3.39-1.31,6.15-3.91,8.22
			c-2.57,2.05-5.79,3.08-9.56,3.08c-4.83,0-8.8-1.47-11.8-4.38c-2.94-2.85-4.46-6.83-4.53-11.84H94.37
			c0.04,5.17,0.99,9.82,2.83,13.83c1.88,4.09,4.52,7.6,7.85,10.41c3.33,2.82,7.34,4.98,11.9,6.44c4.57,1.46,9.56,2.2,14.84,2.2
			c5.47,0,10.54-0.65,15.07-1.93c4.51-1.28,8.47-3.2,11.76-5.71c3.28-2.51,5.87-5.65,7.7-9.34c1.83-3.69,2.76-7.97,2.76-12.72
			C169.08,154.63,168.02,150.7,165.92,147.51"/>
		<polygon class="st0" points="308.04,186.8 284.06,186.8 301.34,151.56 268.11,93 293.44,93 313.4,129.85 330.55,93 354.54,93 		
			"/>
		<path class="st0" d="M256.24,147.51c-2.11-3.21-4.85-5.98-8.14-8.22c-3.3-2.25-7.08-4.18-11.23-5.73
			c-4.2-1.57-8.38-3.03-12.43-4.35c-4.3-1.43-7.81-3.09-10.45-4.93c-2.7-1.88-4.07-4.47-4.07-7.69c0-3.31,1.25-5.83,3.71-7.5
			c2.42-1.64,5.37-2.47,8.75-2.47c4.08,0,7.26,1.25,9.46,3.72c2.13,2.4,3.24,5.7,3.29,9.81h22.53c-0.04-3.84-0.77-7.53-2.19-10.96
			c-1.45-3.51-3.67-6.68-6.57-9.4c-2.91-2.73-6.63-4.91-11.04-6.5c-4.43-1.59-9.63-2.39-15.48-2.39c-4.53,0-8.95,0.56-13.14,1.67
			c-4.19,1.1-7.93,2.78-11.12,4.98c-3.19,2.2-5.78,4.96-7.7,8.21c-1.92,3.24-2.89,7.02-2.89,11.23c0,4.66,0.9,8.62,2.68,11.77
			c1.78,3.16,4.2,5.9,7.21,8.14c3.01,2.25,6.62,4.2,10.72,5.79c4.13,1.6,8.52,3.22,13.07,4.82c2.13,0.78,4.2,1.57,6.16,2.35
			c1.92,0.77,3.6,1.66,5,2.65c1.41,1.01,2.54,2.18,3.37,3.51c0.84,1.34,1.26,3,1.26,4.92c0,3.39-1.31,6.15-3.91,8.22
			c-2.57,2.05-5.79,3.08-9.56,3.08c-4.83,0-8.8-1.47-11.8-4.38c-2.94-2.85-4.46-6.83-4.53-11.84h-22.53
			c0.04,5.17,0.99,9.82,2.83,13.83c1.88,4.09,4.52,7.6,7.85,10.41c3.33,2.82,7.34,4.98,11.9,6.44c4.57,1.46,9.56,2.2,14.84,2.2
			c5.47,0,10.54-0.65,15.07-1.93c4.51-1.28,8.47-3.2,11.76-5.71c3.28-2.51,5.87-5.65,7.7-9.34c1.83-3.69,2.76-7.97,2.76-12.72
			C259.4,154.63,258.34,150.7,256.24,147.51"/>
		<polygon class="st1" points="485.18,0.11 485.18,0.11 458.36,0.11 444.94,23.33 431.53,46.56 458.36,46.56 485.18,46.56 
			498.59,23.33 512,0.11 		"/>
		<polyline class="st2" points="458.36,93.02 444.95,69.79 431.53,46.56 418.12,23.33 404.71,0.11 391.3,23.33 404.71,0.11 
			377.89,0.11 351.07,0.11 364.48,23.33 377.89,46.56 391.3,69.79 404.71,93.02 		"/>
		<path class="st3" d="M351.07,0.11"/>
		<polyline class="st4" points="404.71,93.02 391.3,116.25 377.89,139.48 404.71,139.48 431.53,139.48 444.94,116.25 458.36,93.02 
					"/>
		<polygon class="st5" points="485.18,0.11 498.59,23.33 512,0.11 		"/>
		<polygon class="st6" points="391.3,23.33 391.3,23.33 404.71,46.56 418.12,23.33 		"/>
		<polygon class="st7" points="485.18,0.11 485.18,0.11 471.77,23.33 498.59,23.33 		"/>
		<polygon class="st3" points="377.89,0.11 364.48,23.33 391.3,23.33 404.71,0.11 		"/>
		<polygon class="st8" points="471.77,23.33 444.94,23.33 458.36,46.56 485.18,46.56 498.59,23.33 		"/>
		<polygon class="st9" points="391.3,23.33 364.48,23.33 377.89,46.56 		"/>
		<polygon class="st10" points="444.95,23.33 431.53,46.56 458.36,46.56 		"/>
		<polygon class="st9" points="377.89,0.11 351.07,0.11 364.48,23.33 		"/>
		<polygon class="st11" points="458.36,0.11 444.95,23.33 471.77,23.33 485.18,0.11 		"/>
		<polygon class="st12" points="391.3,23.33 418.12,23.33 404.71,0.11 		"/>
		<polygon class="st9" points="418.12,23.33 404.71,46.56 418.12,69.79 431.53,46.56 		"/>
		<polygon class="st13" points="418.12,69.79 404.71,93.02 418.12,116.25 431.53,93.02 		"/>
		<polygon class="st14" points="431.53,93.02 418.12,116.25 444.95,116.25 458.36,93.02 		"/>
		<polygon class="st15" points="404.71,46.56 391.3,23.33 377.89,46.56 391.3,69.79 404.71,93.02 418.12,69.79 		"/>
		<polygon class="st16" points="444.95,69.79 431.53,46.56 418.12,69.79 431.53,93.02 458.36,93.02 		"/>
		<polygon class="st17" points="418.12,116.25 404.71,139.48 431.53,139.48 444.94,116.25 		"/>
		<polygon class="st4" points="404.71,93.02 391.3,116.25 377.89,139.48 404.71,139.48 418.12,116.25 		"/>
	</g>
</g>
</svg>
