<svg xmlns="http://www.w3.org/2000/svg" version="1.1" xmlns:xlink="http://www.w3.org/1999/xlink" xmlns:svgjs="http://svgjs.com/svgjs" width="160.93" height="139.37"><svg xmlns="http://www.w3.org/2000/svg" viewBox="0 0 160.93 139.37"><defs><style>.cls-1{fill:#c5eb1c;}.cls-2{fill:#2bf;}.cls-3{fill:#4720cc;}.cls-4{fill:#cf0;}.cls-5{fill:#00e1ff;}.cls-6{fill:#b8f402;}.cls-7{fill:#21cfff;}.cls-8{fill:#b8e81c;}.cls-9{fill:#22c4ff;}.cls-10{fill:#99e014;}.cls-11{fill:#c7f75e;}.cls-12{fill:#0ef;}.cls-13{fill:#5427f5;}.cls-14{fill:#5e36ff;}.cls-15{fill:#216fff;}.cls-16{fill:#5c82ff;}.cls-17{fill:#533aeb;}</style></defs><title>Ativo 1</title><g id="SvgjsG1001" data-name="Camada 2"><g id="SvgjsG1000" data-name="Layer 1"><polygon class="cls-1" points="134.11 0 134.11 0 107.29 0 93.87 23.22 80.46 46.45 107.29 46.45 134.11 46.45 147.52 23.22 160.93 0 134.11 0"></polygon><polyline class="cls-2" points="107.29 92.91 93.88 69.68 80.46 46.45 67.05 23.22 53.64 0 40.23 23.22 53.64 0 26.82 0 0 0 13.41 23.22 26.82 46.45 40.23 69.68 53.64 92.91"></polyline><polyline class="cls-3" points="53.64 92.91 40.23 116.14 26.82 139.37 53.64 139.37 80.46 139.37 93.87 116.14 107.29 92.91"></polyline><polygon class="cls-4" points="134.11 0 147.52 23.22 160.93 0 134.11 0"></polygon><polygon class="cls-5" points="40.23 23.22 40.23 23.22 53.64 46.45 67.05 23.22 40.23 23.22"></polygon><polygon class="cls-6" points="134.11 0 134.11 0 120.7 23.22 147.52 23.22 134.11 0"></polygon><polygon class="cls-7" points="26.82 0 13.41 23.22 40.23 23.22 53.64 0 26.82 0"></polygon><polygon class="cls-8" points="120.7 23.22 93.87 23.22 107.29 46.45 134.11 46.45 147.52 23.22 120.7 23.22"></polygon><polygon class="cls-9" points="40.23 23.22 13.41 23.22 26.82 46.45 40.23 23.22"></polygon><polygon class="cls-10" points="93.88 23.22 80.46 46.45 107.29 46.45 93.88 23.22"></polygon><polygon class="cls-9" points="26.82 0 0 0 13.41 23.22 26.82 0"></polygon><polygon class="cls-11" points="107.29 0 93.88 23.22 120.7 23.22 134.11 0 107.29 0"></polygon><polygon class="cls-12" points="40.23 23.22 67.05 23.22 53.64 0 40.23 23.22"></polygon><polygon class="cls-9" points="67.05 23.22 53.64 46.45 67.05 69.68 80.46 46.45 67.05 23.22"></polygon><polygon class="cls-13" points="67.05 69.68 53.64 92.91 67.05 116.14 80.46 92.91 67.05 69.68"></polygon><polygon class="cls-14" points="80.46 92.91 67.05 116.14 93.88 116.14 107.29 92.91 80.46 92.91"></polygon><polygon class="cls-15" points="53.64 46.45 40.23 23.22 26.82 46.45 40.23 69.68 53.64 92.91 67.05 69.68 53.64 46.45"></polygon><polygon class="cls-16" points="93.88 69.68 80.46 46.45 67.05 69.68 80.46 92.91 107.29 92.91 93.88 69.68"></polygon><polygon class="cls-17" points="67.05 116.14 53.64 139.37 80.46 139.37 93.87 116.14 67.05 116.14"></polygon><polygon class="cls-3" points="53.64 92.91 40.23 116.14 26.82 139.37 53.64 139.37 67.05 116.14 53.64 92.91"></polygon></g></g></svg><style>@media (prefers-color-scheme: light) { :root { filter: none; } }
</style></svg>